<?xml version="1.0" standalone="no"?>
<!DOCTYPE svg PUBLIC "-//W3C//DTD SVG 20010904//EN"
 "http://www.w3.org/TR/2001/REC-SVG-20010904/DTD/svg10.dtd">
<svg version="1.0" xmlns="http://www.w3.org/2000/svg"
 width="512.000000pt" height="512.000000pt" viewBox="0 0 512.000000 512.000000"
 preserveAspectRatio="xMidYMid meet">

<g transform="translate(0.000000,512.000000) scale(0.100000,-0.100000)"
fill="#000000" stroke="none">
<path d="M1020 5095 c-104 -13 -276 -63 -355 -102 -74 -38 -184 -104 -192
-116 -4 -6 -1 -7 7 -2 9 5 11 4 6 -3 -4 -7 -15 -12 -25 -12 -21 0 -55 -35 -47
-48 3 -5 -3 -12 -14 -15 -13 -3 -18 -1 -13 6 16 29 -63 -54 -103 -108 -25 -33
-52 -68 -60 -78 -12 -15 -13 -22 -3 -33 10 -12 9 -17 0 -27 -10 -9 -12 -9 -9
3 1 8 -2 16 -7 17 -6 1 -9 -5 -9 -12 1 -8 -3 -12 -9 -8 -6 4 -8 0 -4 -10 4
-10 2 -16 -6 -14 -7 1 -11 -6 -11 -15 1 -10 -3 -18 -8 -18 -6 0 -7 -7 -4 -16
3 -8 2 -12 -4 -9 -15 9 -41 -59 -98 -250 l-26 -90 -3 -1441 -4 -1442 73 72
c84 82 179 134 303 166 65 17 110 20 269 20 230 0 331 -17 450 -76 176 -87
281 -221 332 -422 22 -85 24 -115 24 -311 0 -188 -3 -228 -21 -297 -38 -146
-133 -289 -237 -355 -32 -20 -39 -28 -26 -33 9 -3 636 -6 1393 -6 1438 0 1414
-1 1597 40 210 47 458 196 602 362 89 102 192 264 192 303 0 9 -9 15 -25 15
-33 0 -142 40 -201 75 -70 41 -170 140 -210 208 -18 31 -44 90 -56 130 -21 67
-23 90 -23 312 0 220 2 246 22 310 78 244 296 423 543 444 l75 6 -1 890 c-1
859 -1 894 -22 1010 -60 344 -223 612 -480 792 l-61 43 6 -89 c17 -260 -83
-513 -273 -690 -117 -110 -220 -166 -380 -206 -91 -24 -112 -25 -373 -25 -234
0 -290 3 -366 20 -323 69 -580 290 -674 580 -39 120 -51 216 -51 398 l0 172
-652 -1 c-450 -1 -683 -5 -748 -14z m-660 -335 c0 -5 -10 -15 -22 -21 -23 -12
-23 -12 -4 10 21 23 26 26 26 11z m-70 -119 c0 -23 -29 -36 -44 -20 -8 9 -8
10 1 5 7 -4 17 2 23 14 13 25 20 26 20 1z m1664 -50 c24 -26 17 -62 -15 -80
-24 -13 -29 -13 -53 2 -28 19 -36 63 -14 85 18 18 63 14 82 -7z m-1784 -145
c0 -3 -4 -8 -10 -11 -5 -3 -10 -1 -10 4 0 6 5 11 10 11 6 0 10 -2 10 -4z
m4529 -528 c31 -54 -31 -109 -84 -74 -29 19 -34 66 -9 91 25 25 75 16 93 -17z
m-2850 3 c101 -31 156 -81 261 -238 52 -76 122 -176 157 -223 100 -135 126
-191 131 -281 10 -165 -58 -261 -280 -396 -90 -55 -91 -41 18 -193 210 -294
436 -519 712 -709 52 -36 37 -17 -24 29 -48 36 -54 44 -42 58 12 15 11 16 -5
3 -38 -30 -23 -2 46 84 96 119 168 189 225 217 39 19 63 23 137 23 82 0 97 -3
155 -32 36 -18 107 -69 160 -115 52 -46 164 -139 248 -207 206 -165 239 -218
230 -372 -6 -109 -45 -187 -141 -283 -254 -254 -680 -247 -1177 21 -379 204
-731 515 -992 878 -194 270 -332 561 -400 848 -18 76 -22 122 -22 267 0 164 2
180 27 256 93 278 344 437 576 365z m670 -37 c29 -37 26 -70 -8 -105 -35 -35
-77 -38 -115 -8 -34 27 -36 82 -4 116 32 34 99 32 127 -3z m1619 -349 c129
-30 227 -108 277 -218 57 -124 58 -378 3 -499 -51 -110 -149 -190 -273 -223
-79 -20 -259 -20 -344 1 -151 37 -263 143 -301 284 -18 67 -16 324 3 391 37
127 157 235 297 269 60 14 270 11 338 -5z m-3012 -1517 c29 -26 35 -65 19
-105 -24 -57 -97 -72 -140 -29 -89 89 30 220 121 134z m1019 -1189 c96 -26
145 -98 145 -214 0 -138 -63 -210 -190 -217 -99 -6 -174 32 -209 106 -28 56
-29 173 -2 232 38 84 145 123 256 93z"/>
<path d="M1985 2833 c34 -62 64 -105 54 -78 -8 22 -81 145 -86 145 -2 0 12
-30 32 -67z"/>
<path d="M2450 3860 c-9 -16 -8 -25 1 -36 16 -19 41 1 37 29 -4 29 -25 32 -38
7z m30 -12 c0 -19 -2 -20 -10 -8 -13 19 -13 30 0 30 6 0 10 -10 10 -22z"/>
<path d="M5035 1340 c-10 -11 -23 -19 -29 -17 -6 2 -23 0 -38 -4 -17 -5 -30
-3 -34 3 -4 7 -10 5 -16 -6 -5 -9 -16 -16 -24 -16 -8 0 -12 -4 -9 -10 3 -5 1
-10 -4 -10 -6 0 -11 3 -11 8 0 4 -22 7 -49 7 -27 1 -47 -3 -45 -7 11 -17 -22
-7 -35 11 -13 18 -15 18 -36 -5 -22 -24 -42 -33 -30 -14 3 6 2 10 -4 10 -5 0
-13 -5 -16 -11 -5 -7 -14 -4 -26 7 -10 9 -19 14 -19 9 0 -4 -7 -2 -16 6 -13
10 -17 10 -24 -1 -5 -8 -6 -18 -4 -22 3 -4 -5 -7 -17 -5 -26 2 -32 -27 -16
-83 5 -19 9 -36 8 -38 -1 -1 15 -34 35 -74 26 -52 58 -93 116 -150 83 -81 126
-109 207 -134 84 -27 89 -27 104 3 38 73 74 254 83 413 6 95 5 107 -13 127
l-20 23 -18 -20z"/>
<path d="M4877 1334 c-12 -13 -8 -20 14 -21 11 -1 19 3 17 9 -5 15 -22 21 -31
12z"/>
</g>
</svg>
